<svg viewBox="0 0 32 24" width="640" height="480" xmlns="http://www.w3.org/2000/svg" shape-rendering="crispEdges">
<!-- ======== 灵泉空间全景 ======== -->
<!-- Sky / background gradient effect -->
<rect width="32" height="24" fill="#1A237E"/>
<rect width="32" height="6" fill="#283593"/>
<rect width="32" height="3" fill="#3949AB"/>

<!-- Warm light overlay top center -->
<rect x="12" y="0" width="8" height="4" fill="#FFF59D" opacity="0.3"/>
<rect x="14" y="0" width="4" height="6" fill="#FFF59D" opacity="0.2"/>

<!-- ======== 远景：果树轮廓 ======== -->
<rect x="1" y="8" width="2" height="4" fill="#5D4037"/>
<rect x="0" y="6" width="4" height="3" fill="#66BB6A"/>
<rect x="1" y="5" width="2" height="2" fill="#81C784"/>
<rect x="0" y="7" width="1" height="1" fill="#FF6F00"/>
<rect x="3" y="7" width="1" height="1" fill="#FF6F00"/>
<rect x="1" y="6" width="1" height="1" fill="#FFD54F"/>

<rect x="29" y="8" width="2" height="4" fill="#5D4037"/>
<rect x="28" y="6" width="4" height="3" fill="#66BB6A"/>
<rect x="29" y="5" width="2" height="2" fill="#81C784"/>
<rect x="28" y="7" width="1" height="1" fill="#FF6F00"/>
<rect x="31" y="7" width="1" height="1" fill="#FF6F00"/>
<rect x="30" y="6" width="1" height="1" fill="#FFD54F"/>

<!-- ======== 灵泉眼 (中央水池) ======== -->
<!-- Stone edge -->
<rect x="11" y="10" width="10" height="1" fill="#8D6E63"/>
<rect x="10" y="11" width="1" height="6" fill="#8D6E63"/>
<rect x="21" y="11" width="1" height="6" fill="#8D6E63"/>
<rect x="11" y="17" width="10" height="1" fill="#8D6E63"/>
<!-- Water surface -->
<rect x="11" y="11" width="10" height="6" fill="#29B6F6"/>
<rect x="12" y="11" width="8" height="4" fill="#4FC3F7"/>
<rect x="13" y="12" width="6" height="2" fill="#81D4FA"/>
<!-- Water ripple highlights -->
<rect x="14" y="13" width="4" height="1" fill="#E1F5FE"/>
<rect x="15" y="15" width="2" height="1" fill="#E1F5FE" opacity="0.6"/>
<!-- Central glow (灵气) -->
<rect x="15" y="12" width="2" height="2" fill="#FFF59D" opacity="0.4"/>
<rect x="15" y="11" width="2" height="1" fill="#FFFFFF" opacity="0.3"/>

<!-- ======== 灵田区 (左下) ======== -->
<!-- Soil -->
<rect x="1" y="17" width="9" height="6" fill="#3E2723"/>
<rect x="1" y="17" width="9" height="1" fill="#5D4037"/>
<!-- Crop rows -->
<rect x="2" y="19" width="1" height="3" fill="#66BB6A"/>
<rect x="4" y="19" width="1" height="3" fill="#66BB6A"/>
<rect x="6" y="19" width="1" height="3" fill="#66BB6A"/>
<rect x="8" y="19" width="1" height="3" fill="#66BB6A"/>
<!-- Tomato (red dots) -->
<rect x="1" y="20" width="1" height="1" fill="#E53935"/>
<rect x="3" y="20" width="1" height="1" fill="#E53935"/>
<rect x="5" y="20" width="1" height="1" fill="#E53935"/>
<rect x="7" y="20" width="1" height="1" fill="#E53935"/>
<rect x="2" y="18" width="1" height="1" fill="#81C784"/>
<rect x="4" y="18" width="1" height="1" fill="#81C784"/>
<rect x="6" y="18" width="1" height="1" fill="#81C784"/>
<rect x="8" y="18" width="1" height="1" fill="#81C784"/>

<!-- ======== 灵田区 (右下) ======== -->
<rect x="22" y="17" width="9" height="6" fill="#3E2723"/>
<rect x="22" y="17" width="9" height="1" fill="#5D4037"/>
<rect x="23" y="19" width="1" height="3" fill="#FFD54F"/>
<rect x="25" y="19" width="1" height="3" fill="#FFD54F"/>
<rect x="27" y="19" width="1" height="3" fill="#FFD54F"/>
<rect x="29" y="19" width="1" height="3" fill="#FFD54F"/>
<!-- Spirit fruit trees (golden) -->
<rect x="22" y="20" width="1" height="1" fill="#FF6F00"/>
<rect x="24" y="20" width="1" height="1" fill="#FF6F00"/>
<rect x="26" y="20" width="1" height="1" fill="#FF6F00"/>
<rect x="28" y="20" width="1" height="1" fill="#FF6F00"/>

<!-- ======== 灵气粒子 (漂浮) ======== -->
<rect x="5" y="10" width="1" height="1" fill="#FFF59D" opacity="0.5"/>
<rect x="9" y="8" width="1" height="1" fill="#FFF59D" opacity="0.4"/>
<rect x="14" y="7" width="1" height="1" fill="#FFF59D" opacity="0.3"/>
<rect x="20" y="9" width="1" height="1" fill="#FFF59D" opacity="0.4"/>
<rect x="25" y="6" width="1" height="1" fill="#FFF59D" opacity="0.5"/>
<rect x="28" y="10" width="1" height="1" fill="#FFF59D" opacity="0.3"/>
<rect x="7" y="14" width="1" height="1" fill="#FFF59D" opacity="0.3"/>
<rect x="24" y="13" width="1" height="1" fill="#FFF59D" opacity="0.4"/>

<!-- ======== 木桥/路径 ======== -->
<rect x="0" y="14" width="10" height="2" fill="#8D6E63" opacity="0.5"/>
<rect x="22" y="14" width="10" height="2" fill="#8D6E63" opacity="0.5"/>

<!-- ======== 地面 ======== -->
<rect x="0" y="23" width="32" height="1" fill="#3E2723"/>
</svg>
