<svg viewBox="0 0 32 24" width="640" height="480" xmlns="http://www.w3.org/2000/svg" shape-rendering="crispEdges">
<!-- ======== 极寒冰原 ======== -->
<!-- Sky: dark blue gradient -->
<rect width="32" height="14" fill="#0D47A1"/>
<rect width="32" height="8" fill="#1565C0"/>
<rect width="32" height="4" fill="#1A237E"/>
<!-- Aurora (极光) strip -->
<rect x="2" y="1" width="6" height="1" fill="#69F0AE" opacity="0.3"/>
<rect x="10" y="2" width="8" height="1" fill="#69F0AE" opacity="0.2"/>
<rect x="20" y="1" width="6" height="1" fill="#69F0AE" opacity="0.25"/>
<rect x="5" y="3" width="5" height="1" fill="#69F0AE" opacity="0.15"/>
<rect x="14" y="3" width="6" height="1" fill="#69F0AE" opacity="0.2"/>
<rect x="24" y="3" width="4" height="1" fill="#69F0AE" opacity="0.15"/>

<!-- Crack in sky (域外裂缝) -->
<rect x="14" y="0" width="1" height="5" fill="#4A148C"/>
<rect x="15" y="1" width="1" height="3" fill="#6A1B9A"/>
<rect x="16" y="2" width="1" height="4" fill="#AB47BC" opacity="0.6"/>
<rect x="13" y="3" width="1" height="1" fill="#4A148C" opacity="0.5"/>
<rect x="17" y="5" width="1" height="1" fill="#6A1B9A" opacity="0.4"/>

<!-- Distant mountains (ice peaks) -->
<rect x="0" y="10" width="4" height="4" fill="#90CAF9"/>
<rect x="3" y="8" width="3" height="6" fill="#BBDEFB"/>
<rect x="5" y="9" width="2" height="5" fill="#90CAF9"/>
<rect x="7" y="7" width="4" height="7" fill="#E3F2FD"/>
<rect x="8" y="8" width="2" height="6" fill="#BBDEFB"/>
<rect x="11" y="9" width="3" height="5" fill="#90CAF9"/>
<rect x="13" y="6" width="5" height="8" fill="#E3F2FD"/>
<rect x="14" y="7" width="3" height="7" fill="#BBDEFB"/>
<rect x="15" y="8" width="1" height="6" fill="#90CAF9"/>
<rect x="18" y="9" width="4" height="5" fill="#BBDEFB"/>
<rect x="20" y="8" width="2" height="6" fill="#E3F2FD"/>
<rect x="22" y="10" width="3" height="4" fill="#90CAF9"/>
<rect x="25" y="7" width="4" height="7" fill="#E3F2FD"/>
<rect x="26" y="8" width="2" height="6" fill="#BBDEFB"/>
<rect x="27" y="9" width="1" height="5" fill="#90CAF9"/>
<rect x="29" y="10" width="3" height="4" fill="#90CAF9"/>

<!-- Mountain shadow line -->
<rect x="7" y="11" width="4" height="1" fill="#42A5F5" opacity="0.5"/>
<rect x="13" y="10" width="5" height="1" fill="#42A5F5" opacity="0.5"/>
<rect x="25" y="11" width="4" height="1" fill="#42A5F5" opacity="0.5"/>

<!-- Snow ground -->
<rect x="0" y="14" width="32" height="10" fill="#FAFAFA"/>
<rect x="0" y="14" width="32" height="1" fill="#E3F2FD"/>
<rect x="0" y="15" width="32" height="3" fill="#F5F5F5"/>
<!-- Snow texture dots -->
<rect x="3" y="17" width="1" height="1" fill="#E1F5FE" opacity="0.5"/>
<rect x="8" y="19" width="1" height="1" fill="#E1F5FE" opacity="0.4"/>
<rect x="15" y="16" width="1" height="1" fill="#E1F5FE" opacity="0.5"/>
<rect x="22" y="18" width="1" height="1" fill="#E1F5FE" opacity="0.4"/>
<rect x="27" y="20" width="1" height="1" fill="#E1F5FE" opacity="0.5"/>

<!-- Ice crack in ground -->
<rect x="4" y="17" width="2" height="1" fill="#1565C0"/>
<rect x="6" y="18" width="1" height="2" fill="#1565C0"/>
<rect x="7" y="20" width="2" height="1" fill="#0D47A1"/>
<rect x="9" y="21" width="3" height="1" fill="#0D47A1" opacity="0.6"/>
<!-- Crack glow (ice blue) -->
<rect x="4" y="17" width="1" height="1" fill="#81D4FA"/>
<rect x="6" y="18" width="1" height="1" fill="#4FC3F7"/>

<!-- Frozen structure (frozen car silhouette) -->
<rect x="18" y="15" width="6" height="4" fill="#90CAF9"/>
<rect x="19" y="14" width="4" height="1" fill="#BBDEFB"/>
<rect x="19" y="16" width="1" height="1" fill="#42A5F5" opacity="0.5"/>
<rect x="22" y="16" width="1" height="1" fill="#42A5F5" opacity="0.5"/>
<rect x="17" y="19" width="8" height="1" fill="#E3F2FD"/>
<!-- Ice coating shine -->
<rect x="18" y="15" width="1" height="1" fill="#E1F5FE"/>
<rect x="23" y="16" width="1" height="1" fill="#E1F5FE"/>
<rect x="20" y="14" width="2" height="1" fill="#FFFFFF" opacity="0.5"/>

<!-- Dead frozen tree -->
<rect x="28" y="15" width="1" height="6" fill="#37474F"/>
<rect x="26" y="13" width="1" height="1" fill="#37474F"/>
<rect x="27" y="14" width="2" height="1" fill="#37474F"/>
<rect x="29" y="13" width="2" height="1" fill="#37474F"/>
<rect x="28" y="12" width="1" height="1" fill="#37474F"/>
<rect x="30" y="14" width="1" height="1" fill="#37474F"/>
<!-- Ice on tree -->
<rect x="27" y="14" width="1" height="1" fill="#81D4FA" opacity="0.4"/>
<rect x="29" y="13" width="1" height="1" fill="#81D4FA" opacity="0.4"/>

<!-- Falling snow particles -->
<rect x="2" y="2" width="1" height="1" fill="#FFFFFF" opacity="0.6"/>
<rect x="6" y="5" width="1" height="1" fill="#FFFFFF" opacity="0.5"/>
<rect x="11" y="3" width="1" height="1" fill="#FFFFFF" opacity="0.6"/>
<rect x="18" y="4" width="1" height="1" fill="#FFFFFF" opacity="0.4"/>
<rect x="23" y="6" width="1" height="1" fill="#FFFFFF" opacity="0.5"/>
<rect x="27" y="3" width="1" height="1" fill="#FFFFFF" opacity="0.6"/>
<rect x="4" y="8" width="1" height="1" fill="#FFFFFF" opacity="0.3"/>
<rect x="10" y="10" width="1" height="1" fill="#FFFFFF" opacity="0.3"/>
<rect x="20" y="9" width="1" height="1" fill="#FFFFFF" opacity="0.3"/>
<rect x="26" y="11" width="1" height="1" fill="#FFFFFF" opacity="0.3"/>

<!-- Wind streak -->
<rect x="0" y="7" width="3" height="1" fill="#E3F2FD" opacity="0.2"/>
<rect x="20" y="10" width="4" height="1" fill="#E3F2FD" opacity="0.15"/>
</svg>
