<svg viewBox="0 0 64 64" width="640" height="640" xmlns="http://www.w3.org/2000/svg" shape-rendering="crispEdges">
<!-- ======== 异能特效集 ======== -->
<rect width="64" height="64" fill="#1a1a2e"/>

<!-- ======== 左上：火球 (16x16 at 0,0) ======== -->
<!-- Fireball explosion -->
<rect x="4" y="2" width="1" height="1" fill="#FFD54F" opacity="0.5"/>
<rect x="7" y="1" width="2" height="1" fill="#FFD54F" opacity="0.4"/>
<rect x="3" y="3" width="2" height="1" fill="#FF6F00"/>
<rect x="5" y="3" width="4" height="1" fill="#FFD54F"/>
<rect x="9" y="3" width="2" height="1" fill="#FF6F00"/>
<rect x="2" y="4" width="1" height="1" fill="#E65100"/>
<rect x="3" y="4" width="3" height="1" fill="#FF6F00"/>
<rect x="6" y="4" width="4" height="1" fill="#FFD54F"/>
<rect x="10" y="4" width="2" height="1" fill="#FF6F00"/>
<rect x="12" y="4" width="1" height="1" fill="#E65100"/>
<rect x="1" y="5" width="1" height="1" fill="#424242"/>
<rect x="2" y="5" width="2" height="1" fill="#FF6F00"/>
<rect x="4" y="5" width="2" height="1" fill="#FFD54F"/>
<rect x="6" y="5" width="2" height="1" fill="#FFFFFF"/>
<rect x="8" y="5" width="2" height="1" fill="#FFD54F"/>
<rect x="10" y="5" width="2" height="1" fill="#FF6F00"/>
<rect x="12" y="5" width="2" height="1" fill="#424242"/>
<!-- Core -->
<rect x="5" y="6" width="6" height="3" fill="#FFD54F"/>
<rect x="6" y="6" width="4" height="3" fill="#FFFFFF"/>
<rect x="7" y="7" width="2" height="1" fill="#FFFDE7"/>
<!-- Bottom fade -->
<rect x="3" y="9" width="2" height="1" fill="#FF6F00"/>
<rect x="5" y="9" width="4" height="1" fill="#FFD54F"/>
<rect x="9" y="9" width="2" height="1" fill="#FF6F00"/>
<rect x="4" y="10" width="6" height="1" fill="#FF6F00"/>
<rect x="5" y="11" width="4" height="1" fill="#E65100"/>
<rect x="6" y="12" width="2" height="1" fill="#424242"/>
<!-- Spark particles -->
<rect x="0" y="6" width="1" height="1" fill="#FFD54F" opacity="0.6"/>
<rect x="14" y="5" width="1" height="1" fill="#FFD54F" opacity="0.6"/>
<rect x="1" y="8" width="1" height="1" fill="#FF6F00" opacity="0.5"/>

<!-- ======== 右上：冰锥 (16x16 at 16,0) ======== -->
<rect x="24" y="2" width="1" height="1" fill="#E1F5FE" opacity="0.5"/>
<rect x="23" y="3" width="1" height="1" fill="#81D4FA" opacity="0.5"/>
<!-- Ice shard -->
<rect x="24" y="4" width="1" height="1" fill="#E1F5FE"/>
<rect x="23" y="5" width="3" height="1" fill="#81D4FA"/>
<rect x="22" y="6" width="5" height="1" fill="#4FC3F7"/>
<rect x="21" y="7" width="7" height="1" fill="#29B6F6"/>
<rect x="20" y="8" width="9" height="3" fill="#29B6F6"/>
<rect x="21" y="8" width="7" height="3" fill="#4FC3F7"/>
<rect x="22" y="9" width="5" height="1" fill="#81D4FA"/>
<rect x="23" y="10" width="3" height="1" fill="#E1F5FE"/>
<!-- Ice crystals break -->
<rect x="20" y="11" width="1" height="1" fill="#81D4FA"/>
<rect x="22" y="12" width="1" height="1" fill="#81D4FA" opacity="0.6"/>
<rect x="24" y="11" width="1" height="1" fill="#E1F5FE" opacity="0.5"/>
<rect x="26" y="12" width="1" height="1" fill="#81D4FA"/>
<rect x="28" y="11" width="1" height="1" fill="#81D4FA" opacity="0.4"/>
<!-- Mist -->
<rect x="19" y="8" width="1" height="2" fill="#E1F5FE" opacity="0.3"/>
<rect x="29" y="9" width="1" height="2" fill="#E1F5FE" opacity="0.3"/>
<rect x="18" y="10" width="1" height="1" fill="#E1F5FE" opacity="0.2"/>
<rect x="30" y="11" width="1" height="1" fill="#E1F5FE" opacity="0.2"/>
<!-- Cold aura -->
<rect x="20" y="5" width="1" height="1" fill="#81D4FA" opacity="0.3"/>
<rect x="28" y="5" width="1" height="1" fill="#81D4FA" opacity="0.3"/>

<!-- ======== 左下：极焰弹 (16x16 at 0,16) ======== -->
<!-- Outer purple aura -->
<rect x="2" y="18" width="1" height="1" fill="#AB47BC" opacity="0.3"/>
<rect x="13" y="18" width="1" height="1" fill="#AB47BC" opacity="0.3"/>
<!-- Fire half (left, orange) -->
<rect x="3" y="21" width="3" height="1" fill="#E65100"/>
<rect x="4" y="21" width="2" height="1" fill="#FF6F00"/>
<rect x="3" y="22" width="3" height="2" fill="#FF6F00"/>
<rect x="4" y="22" width="2" height="2" fill="#FFD54F"/>
<rect x="4" y="23" width="1" height="1" fill="#FFFFFF"/>
<!-- Ice half (right, blue) -->
<rect x="10" y="21" width="3" height="1" fill="#0277BD"/>
<rect x="10" y="21" width="2" height="1" fill="#29B6F6"/>
<rect x="10" y="22" width="3" height="2" fill="#29B6F6"/>
<rect x="10" y="22" width="2" height="2" fill="#81D4FA"/>
<rect x="11" y="23" width="1" height="1" fill="#E1F5FE"/>
<!-- Fusion core (purple) -->
<rect x="6" y="21" width="4" height="1" fill="#AB47BC"/>
<rect x="6" y="22" width="4" height="2" fill="#CE93D8"/>
<rect x="7" y="22" width="2" height="2" fill="#F3E5F5"/>
<rect x="7" y="23" width="2" height="1" fill="#FFFFFF"/>
<!-- Energy spikes -->
<rect x="2" y="20" width="1" height="1" fill="#FF6F00"/>
<rect x="6" y="19" width="1" height="2" fill="#CE93D8"/>
<rect x="9" y="19" width="1" height="2" fill="#81D4FA"/>
<rect x="13" y="20" width="1" height="1" fill="#29B6F6"/>
<rect x="0" y="22" width="1" height="1" fill="#E65100" opacity="0.5"/>
<rect x="15" y="22" width="1" height="1" fill="#0277BD" opacity="0.5"/>
<!-- Trail -->
<rect x="5" y="25" width="6" height="1" fill="#AB47BC" opacity="0.3"/>
<rect x="6" y="26" width="4" height="1" fill="#AB47BC" opacity="0.2"/>
<rect x="7" y="27" width="2" height="1" fill="#AB47BC" opacity="0.1"/>

<!-- ======== 右下：雷系 (16x16 at 16,16) ======== -->
<!-- Lightning bolt -->
<rect x="28" y="18" width="2" height="1" fill="#FFFFFF"/>
<rect x="27" y="19" width="3" height="1" fill="#E1BEE7"/>
<rect x="26" y="20" width="4" height="1" fill="#B39DDB"/>
<rect x="25" y="21" width="5" height="1" fill="#E1BEE7"/>
<rect x="24" y="22" width="6" height="1" fill="#FFFFFF"/>
<rect x="23" y="23" width="8" height="1" fill="#E1BEE7"/>
<rect x="24" y="24" width="6" height="1" fill="#FFFFFF"/>
<rect x="25" y="25" width="4" height="1" fill="#E1BEE7"/>
<rect x="26" y="26" width="2" height="1" fill="#B39DDB"/>
<!-- Electric arcs -->
<rect x="21" y="22" width="2" height="1" fill="#B39DDB" opacity="0.6"/>
<rect x="20" y="23" width="1" height="1" fill="#E1BEE7" opacity="0.4"/>
<rect x="31" y="22" width="2" height="1" fill="#B39DDB" opacity="0.6"/>
<rect x="33" y="23" width="1" height="1" fill="#E1BEE7" opacity="0.4"/>
<rect x="22" y="25" width="1" height="1" fill="#E1BEE7" opacity="0.3"/>
<rect x="31" y="25" width="1" height="1" fill="#E1BEE7" opacity="0.3"/>
<!-- Flash core -->
<rect x="27" y="22" width="1" height="1" fill="#FFFFFF"/>
<rect x="27" y="22" width="1" height="1" fill="#FAFAFA"/>

<!-- ======== 底部中央：治愈光 (16x16 at 24,16) ======== -->
<rect x="36" y="18" width="1" height="1" fill="#FFF176" opacity="0.3"/>
<rect x="40" y="17" width="1" height="1" fill="#FFD54F" opacity="0.4"/>
<!-- Hand shape -->
<rect x="38" y="24" width="6" height="1" fill="#FFE0B2"/>
<rect x="39" y="23" width="4" height="1" fill="#FFE0B2"/>
<!-- Healing light rising -->
<rect x="40" y="19" width="2" height="4" fill="#FFF176"/>
<rect x="39" y="20" width="4" height="2" fill="#FFD54F"/>
<rect x="40" y="20" width="2" height="1" fill="#FFFFFF"/>
<rect x="41" y="21" width="1" height="1" fill="#FFD54F"/>
<!-- Cross symbol (healing) -->
<rect x="40" y="18" width="2" height="1" fill="#FFFFFF"/>
<rect x="41" y="17" width="1" height="3" fill="#FFFFFF"/>
<!-- Light particles -->
<rect x="36" y="20" width="1" height="1" fill="#FFF176" opacity="0.5"/>
<rect x="37" y="22" width="1" height="1" fill="#FFD54F" opacity="0.4"/>
<rect x="44" y="19" width="1" height="1" fill="#FFF176" opacity="0.5"/>
<rect x="45" y="21" width="1" height="1" fill="#FFD54F" opacity="0.4"/>
<rect x="38" y="16" width="1" height="1" fill="#FFD54F" opacity="0.3"/>
<rect x="43" y="16" width="1" height="1" fill="#FFD54F" opacity="0.3"/>

<!-- ======== Labels area ======== -->
<rect x="2" y="14" width="3" height="1" fill="#FF6F00"/>
<rect x="22" y="14" width="3" height="1" fill="#4FC3F7"/>
<rect x="2" y="30" width="3" height="1" fill="#AB47BC"/>
<rect x="26" y="30" width="3" height="1" fill="#E1BEE7"/>
<rect x="38" y="30" width="3" height="1" fill="#FFD54F"/>

<!-- ======== 底部：等级色阶展示条 ======== -->
<!-- Fire level gradient F→SS -->
<rect x="0" y="34" width="6" height="2" fill="#E65100"/>
<rect x="6" y="34" width="6" height="2" fill="#FF6F00"/>
<rect x="12" y="34" width="6" height="2" fill="#FFD54F"/>
<rect x="18" y="34" width="6" height="2" fill="#FFD700"/>
<rect x="24" y="34" width="6" height="2" fill="#CE93D8"/>
<rect x="30" y="34" width="6" height="2" fill="#FFFFFF"/>
<rect x="36" y="34" width="6" height="2" fill="#1a1a2e"/>
<!-- Labels -->
<rect x="0" y="36" width="2" height="1" fill="#FF6F00" opacity="0.5"/>
<rect x="6" y="36" width="2" height="1" fill="#FF6F00" opacity="0.5"/>
<rect x="12" y="36" width="2" height="1" fill="#FFD54F" opacity="0.5"/>
<rect x="18" y="36" width="2" height="1" fill="#FFD700" opacity="0.5"/>
<rect x="24" y="36" width="2" height="1" fill="#CE93D8" opacity="0.5"/>
<rect x="30" y="36" width="2" height="1" fill="#FFFFFF" opacity="0.5"/>
</svg>
