<svg viewBox="0 0 16 16" width="512" height="512" xmlns="http://www.w3.org/2000/svg" shape-rendering="crispEdges">
<rect width="16" height="16" fill="#1a1a2e"/>
<!-- Hair top -->
<rect x="4" y="1" width="8" height="1" fill="#212121"/>
<rect x="3" y="2" width="10" height="1" fill="#212121"/>
<rect x="3" y="3" width="1" height="9" fill="#212121"/>
<rect x="12" y="3" width="1" height="9" fill="#212121"/>
<!-- Face -->
<rect x="4" y="3" width="8" height="1" fill="#212121"/>
<rect x="4" y="4" width="8" height="2" fill="#FFE0B2"/>
<rect x="5" y="6" width="1" height="1" fill="#1A1A1A"/>
<rect x="10" y="6" width="1" height="1" fill="#1A1A1A"/>
<rect x="4" y="7" width="8" height="1" fill="#FFE0B2"/>
<rect x="7" y="7" width="2" height="1" fill="#FF8A80"/>
<!-- Neck -->
<rect x="6" y="8" width="4" height="1" fill="#FFE0B2"/>
<!-- Body / Outfit -->
<rect x="3" y="9" width="10" height="1" fill="#212121"/>
<rect x="4" y="10" width="8" height="3" fill="#1C1C1C"/>
<rect x="6" y="10" width="4" height="1" fill="#37474F"/>
<rect x="4" y="9" width="1" height="4" fill="#FFE0B2"/>
<rect x="11" y="9" width="1" height="4" fill="#FFE0B2"/>
<!-- Belt -->
<rect x="4" y="12" width="8" height="1" fill="#8D6E63"/>
<!-- Legs -->
<rect x="5" y="13" width="2" height="2" fill="#1C1C1C"/>
<rect x="9" y="13" width="2" height="2" fill="#1C1C1C"/>
<!-- Boots -->
<rect x="5" y="15" width="2" height="1" fill="#5D4037"/>
<rect x="9" y="15" width="2" height="1" fill="#5D4037"/>
<!-- Hair highlight -->
<rect x="5" y="2" width="4" height="1" fill="#424242"/>
<!-- Fire glow right hand -->
<rect x="12" y="11" width="1" height="1" fill="#FF6F00"/>
<rect x="13" y="10" width="1" height="1" fill="#FFD54F"/>
<rect x="13" y="11" width="1" height="1" fill="#FF6F00"/>
<rect x="14" y="11" width="1" height="1" fill="#FFD54F"/>
</svg>
